<?xml version="1.0" encoding="UTF-8" standalone="no"?>
<svg version="1.1" id="svg865" width="50" height="50" viewBox="0 0 49.999999 50.000002" xmlns="http://www.w3.org/2000/svg" xmlns:svg="http://www.w3.org/2000/svg">
   <defs id="defs869" />
   <g id="g871" transform="translate(-57.667171,23.498138)">
      <path style="display:inline;fill:#ffe8e9;fill-opacity:1;stroke-width:0.872;stroke-dasharray:none" id="rect1542" width="50" height="50" x="57.667171" y="-23.498138" d="m 63.667171,-23.498138 h 37.999999 a 6,6 45 0 1 6,6 v 38 a 6,6 135 0 1 -6,6 H 63.667171 a 6,6 45 0 1 -6,-6 v -38 a 6,6 135 0 1 6,-6 z" />
      <path style="fill:#ff8d90;fill-opacity:1;stroke:none;stroke-width:0.249087" d="m 76.627877,7.5611628 1.49452,-0.747261 c -2.23107,2.284877 -4.202348,6.4939522 -4.483567,9.7144012 l 16.190667,2.739969 -0.74726,-2.739969 h 0.24909 l 1.24543,4.732666 c 2.85853,-1.233729 4.34109,-3.443879 4.73266,-6.476277 h 0.24908 c -0.408,3.210744 -1.70724,5.535226 -4.73265,6.974452 v 0.249087 l 3.98539,-2.241785 -0.24908,-0.747261 c 1.68034,-0.314598 2.21563,-2.726519 2.23705,-4.234493 0.061,-4.282556 -3.63045,-6.9014592 -4.22975,-10.9598356 h -0.24909 l 0.49818,2.4908714 c -0.93084,-1.0476614 -1.23274,-1.8469804 -1.24544,-3.2381324 -2.24004,0.779892 -3.71738,4.7979164 -4.23448,6.9744396 h -0.24909 c 0.50166,-2.1115122 1.57822,-4.8372736 3.0421,-6.4655546 1.09997,-1.223516 2.99353,-1.433746 3.99661,-2.64032402 1.12313,-1.351049 0.1091,-5.32124998 -0.81153,-6.58661158 l 1.49452,-1.494523 -3.7363,-1.992698 0.49817,-0.9963488 c -1.93092,-0.08718 -1.16946,-3.066512 -1.79692,-4.483569 -0.98339,-2.22111 -3.20649,-3.434414 -5.42661,-4.092751 -4.71248,-1.396881 -12.746537,2.227586 -14.945479,6.583623 -1.164233,2.3065468 -1.043675,5.7989988 -0.318333,8.2198764 1.406595,4.69354998 5.874972,7.147556 7.542112,11.4580084 m 10.95984,-24.4105408 c 1.50124,1.537366 2.39596,3.052065 2.49087,5.23083 h -0.24909 l -2.24178,-5.23083 m -3.9854,17.68518838 -0.24909,0.24908702 0.24909,-0.24908702 m -0.24909,0.49817502 -0.49817,0.498174 0.49817,-0.498174 m -0.49817,0.747261 c -1.09648,1.924448 -2.67719,3.8165124 -4.73266,4.7326554 l 4.73266,-4.7326554 m 10.21257,4.2344814 -0.24908,0.249087 0.24908,-0.249087 m 0,0.996348 1.24544,2.241785 h -0.24909 l -0.99635,-2.241785 m 1.9927,2.490872 c 1.79442,3.1561842 1.82133,6.0951642 0,9.2162372 h -0.24909 l 0.95376,-4.48358 -0.70467,-4.7326572 m -7.97079,0.2490872 v 1.245436 h -0.24909 l 0.24909,-1.245436 m 0,2.241785 v 0.747261 h -0.24909 l 0.24909,-0.747261 m 0.24909,1.245436 -0.24909,0.249087 0.24909,-0.249087 m 0.24909,0.498175 -0.24909,0.249087 0.24909,-0.249087 m 0.24908,0.498174 0.24909,0.498175 -0.24909,-0.498175 m 0.49818,0.747262 0.74726,1.245436 h -0.24909 l -0.49817,-1.245436 m 6.22718,4.234492 -0.24909,0.249087 z" id="path1397" />
   </g>
</svg>